<?xml version="1.0" encoding="utf-8"?>
<!-- Generator: Adobe Illustrator 25.2.0, SVG Export Plug-In . SVG Version: 6.00 Build 0)  -->
<svg version="1.1" id="Layer_1" xmlns="http://www.w3.org/2000/svg" xmlns:xlink="http://www.w3.org/1999/xlink" x="0px" y="0px"
	 viewBox="0 0 249 53.5" style="enable-background:new 0 0 249 53.5;" xml:space="preserve">
<style type="text/css">
	.st0{fill:#1D7C96;}
	.st1{fill:#4154F1;}
	.st2{fill:#239DC9;}
	.st3{clip-path:url(#SVGID_2_);fill:#239DC9;}
	.st4{clip-path:url(#SVGID_2_);fill:#229CC8;}
	.st5{clip-path:url(#SVGID_2_);fill:#229BC6;}
	.st6{clip-path:url(#SVGID_2_);fill:#219AC5;}
	.st7{clip-path:url(#SVGID_2_);fill:#2099C4;}
	.st8{clip-path:url(#SVGID_2_);fill:#2099C3;}
	.st9{clip-path:url(#SVGID_2_);fill:#1F98C2;}
	.st10{clip-path:url(#SVGID_2_);fill:#1F97C1;}
	.st11{clip-path:url(#SVGID_2_);fill:#1E96C0;}
	.st12{clip-path:url(#SVGID_2_);fill:#1E96BF;}
	.st13{clip-path:url(#SVGID_2_);fill:#1D95BE;}
	.st14{clip-path:url(#SVGID_2_);fill:#1D94BD;}
	.st15{clip-path:url(#SVGID_2_);fill:#1C94BC;}
	.st16{clip-path:url(#SVGID_2_);fill:#1C93BB;}
	.st17{clip-path:url(#SVGID_2_);fill:#1B92BA;}
	.st18{clip-path:url(#SVGID_2_);fill:#1B91B9;}
	.st19{clip-path:url(#SVGID_2_);fill:#1A91B8;}
	.st20{clip-path:url(#SVGID_2_);fill:#1990B7;}
	.st21{clip-path:url(#SVGID_2_);fill:#198FB6;}
	.st22{clip-path:url(#SVGID_2_);fill:#188EB5;}
	.st23{clip-path:url(#SVGID_2_);fill:#188EB4;}
	.st24{clip-path:url(#SVGID_2_);fill:#178DB3;}
	.st25{clip-path:url(#SVGID_2_);fill:#178CB2;}
	.st26{clip-path:url(#SVGID_2_);fill:#168CB1;}
	.st27{clip-path:url(#SVGID_2_);fill:#168BB0;}
	.st28{clip-path:url(#SVGID_2_);fill:#158AAF;}
	.st29{clip-path:url(#SVGID_2_);fill:#1589AE;}
	.st30{clip-path:url(#SVGID_2_);fill:#1489AD;}
	.st31{clip-path:url(#SVGID_2_);fill:#1388AC;}
	.st32{clip-path:url(#SVGID_2_);fill:#1387AB;}
	.st33{clip-path:url(#SVGID_2_);fill:#1287AA;}
	.st34{clip-path:url(#SVGID_2_);fill:#1286A9;}
	.st35{clip-path:url(#SVGID_2_);fill:#1185A8;}
	.st36{clip-path:url(#SVGID_2_);fill:#1184A7;}
	.st37{clip-path:url(#SVGID_2_);fill:#1084A5;}
	.st38{clip-path:url(#SVGID_2_);fill:#1083A4;}
	.st39{clip-path:url(#SVGID_2_);fill:#0F82A3;}
	.st40{clip-path:url(#SVGID_2_);fill:#0F81A2;}
	.st41{clip-path:url(#SVGID_2_);fill:#0E81A1;}
	.st42{clip-path:url(#SVGID_2_);fill:#0E80A0;}
	.st43{clip-path:url(#SVGID_2_);fill:#0D7F9F;}
	.st44{clip-path:url(#SVGID_2_);fill:#0C7F9E;}
	.st45{clip-path:url(#SVGID_2_);fill:#0C7E9D;}
	.st46{clip-path:url(#SVGID_2_);fill:#0B7D9C;}
	.st47{clip-path:url(#SVGID_2_);fill:#0B7C9B;}
	.st48{clip-path:url(#SVGID_2_);fill:#0A7C9A;}
	.st49{clip-path:url(#SVGID_2_);fill:#0A7B99;}
	.st50{clip-path:url(#SVGID_2_);fill:#097A98;}
	.st51{clip-path:url(#SVGID_2_);fill:#097A97;}
	.st52{clip-path:url(#SVGID_2_);fill:#087996;}
	.st53{clip-path:url(#SVGID_2_);fill:#087895;}
	.st54{clip-path:url(#SVGID_2_);fill:#077794;}
	.st55{clip-path:url(#SVGID_2_);fill:#067793;}
	.st56{clip-path:url(#SVGID_2_);fill:#067692;}
	.st57{clip-path:url(#SVGID_2_);fill:#057591;}
	.st58{clip-path:url(#SVGID_2_);fill:#057490;}
	.st59{clip-path:url(#SVGID_2_);fill:#04748F;}
	.st60{clip-path:url(#SVGID_2_);fill:#04738E;}
	.st61{clip-path:url(#SVGID_2_);fill:#03728D;}
	.st62{clip-path:url(#SVGID_2_);fill:#03728C;}
	.st63{clip-path:url(#SVGID_2_);fill:#02718B;}
	.st64{clip-path:url(#SVGID_2_);fill:#02708A;}
	.st65{clip-path:url(#SVGID_2_);fill:#016F89;}
	.st66{clip-path:url(#SVGID_2_);fill:#016F88;}
	.st67{clip-path:url(#SVGID_2_);fill:#006E87;}
	.st68{fill:#2C334C;}
</style>
<g>
	<g>
		<path class="st0" d="M2.3,35.8c0.1,0.2,0.2,0.4,0.3,0.6c0.1,0.2,0.2,0.4,0.2,0.6c4.9,12.3,18.9,18.3,31.3,13.4
			s18.3-18.9,13.4-31.3c-0.1-0.2-0.2-0.4-0.3-0.6c-0.1-0.2-0.2-0.4-0.2-0.6C42.1,5.6,28.1-0.4,15.8,4.5S-2.6,23.4,2.3,35.8z
			 M33.1,47.8C21.7,52.3,8.8,47,4,35.9C-0.2,24.4,5.5,11.7,16.8,7.2S41,8,45.9,19.1C50.1,30.5,44.4,43.3,33.1,47.8z"/>
	</g>
	<g>
		<path class="st1" d="M1.8,34.4c4.9,12.3,18.9,18.3,31.3,13.4s18.3-18.9,13.4-31.3S27.6-1.8,15.3,3.2S-3.1,22.1,1.8,34.4z
			 M45.1,17.1c4.6,11.6-1,24.7-12.6,29.3s-24.7-1-29.3-12.6s1-24.7,12.6-29.3S40.5,5.6,45.1,17.1z"/>
	</g>
	<g>
		<path class="st2" d="M1.7,34.3C6.7,46.7,20.7,52.7,33,47.7s18.3-18.9,13.4-31.3S27.5-1.9,15.1,3.1S-3.2,22,1.7,34.3z M45,17
			c4.6,11.6-1,24.7-12.6,29.3s-24.7-1-29.3-12.6s1-24.7,12.6-29.3S40.4,5.5,45,17z"/>
	</g>
	<g>
		<g>
			<defs>
				<path id="SVGID_1_" d="M42.3,19.9c-2.4-6.9-8.8-12-15.6-12.4c-3.9-0.7-7.7,0.2-11.2,2c-5.7,2.9-8.9,7.6-9.9,13.8
					c-0.3,1.6,0.5,2.9,1.8,3.3c1.4,0.5,2.8-0.2,3.5-1.6c0.2-0.4,0.4-0.8,0.5-1.2c1.1-6.2,6.9-11.4,15.1-10.6c1.8,0.4,3.5,0.9,5.1,2
					c1.5,1,1.9,2.3,1.1,3.7c-0.8,1.4-2.2,1.8-3.8,1.1c-1.2-0.9-2.6-1.4-4.2-1.5c-4.3-0.3-8.1,3-8.3,7.3c0,0.2,0,0.4,0,0.6
					c0.1,4.1,3.2,7.5,7.3,7.7c3.9,0.2,7.2-2.3,8.1-6c0.7-1.8,2-2.6,3.6-2.1c1.6,0.5,2.2,1.9,1.6,4c-2.4,8.4-12.4,12.1-19.8,7.4
					c-0.6-0.4-1.2-0.9-2-1.1c-1.3-0.4-2.6,0.4-3.1,1.1c-0.5,0.7-0.7,1.7-0.3,2.7c0.3,0.8,0.9,1.2,1.5,1.6c6.7,4.9,15.5,4.8,22.3-0.2
					c5-3.7,7.9-9.3,7.8-15.4C43.4,24.1,43,22,42.3,19.9z"/>
			</defs>
			<clipPath id="SVGID_2_">
				<use xlink:href="#SVGID_1_"  style="overflow:visible;"/>
			</clipPath>
			<rect x="5.3" y="6.9" class="st3" width="0.4" height="39.7"/>
			<rect x="5.7" y="6.9" class="st3" width="3.5" height="39.7"/>
			<rect x="9.2" y="6.9" class="st4" width="3.5" height="39.7"/>
			<rect x="12.7" y="6.9" class="st5" width="3.5" height="39.7"/>
			<rect x="16.1" y="6.9" class="st6" width="3.5" height="39.7"/>
			<rect x="19.6" y="6.9" class="st6" width="0.3" height="39.7"/>
			<rect x="19.9" y="6.9" class="st7" width="0.3" height="39.7"/>
			<rect x="20.2" y="6.9" class="st8" width="0.3" height="39.7"/>
			<rect x="20.5" y="6.9" class="st9" width="0.3" height="39.7"/>
			<rect x="20.8" y="6.9" class="st10" width="0.3" height="39.7"/>
			<rect x="21.2" y="6.9" class="st11" width="0.3" height="39.7"/>
			<rect x="21.5" y="6.9" class="st12" width="0.3" height="39.7"/>
			<rect x="21.8" y="6.9" class="st13" width="0.3" height="39.7"/>
			<rect x="22.1" y="6.9" class="st14" width="0.3" height="39.7"/>
			<rect x="22.4" y="6.9" class="st15" width="0.3" height="39.7"/>
			<rect x="22.7" y="6.9" class="st16" width="0.3" height="39.7"/>
			<rect x="23" y="6.9" class="st17" width="0.3" height="39.7"/>
			<rect x="23.3" y="6.9" class="st18" width="0.3" height="39.7"/>
			<rect x="23.7" y="6.9" class="st19" width="0.3" height="39.7"/>
			<rect x="24" y="6.9" class="st20" width="0.3" height="39.7"/>
			<rect x="24.3" y="6.9" class="st21" width="0.3" height="39.7"/>
			<rect x="24.6" y="6.9" class="st22" width="0.3" height="39.7"/>
			<rect x="24.9" y="6.9" class="st23" width="0.3" height="39.7"/>
			<rect x="25.2" y="6.9" class="st24" width="0.3" height="39.7"/>
			<rect x="25.5" y="6.9" class="st25" width="0.3" height="39.7"/>
			<rect x="25.8" y="6.9" class="st26" width="0.3" height="39.7"/>
			<rect x="26.2" y="6.9" class="st27" width="0.3" height="39.7"/>
			<rect x="26.5" y="6.9" class="st28" width="0.3" height="39.7"/>
			<rect x="26.8" y="6.9" class="st29" width="0.3" height="39.7"/>
			<rect x="27.1" y="6.9" class="st30" width="0.3" height="39.7"/>
			<rect x="27.4" y="6.9" class="st31" width="0.3" height="39.7"/>
			<rect x="27.7" y="6.9" class="st32" width="0.3" height="39.7"/>
			<rect x="28" y="6.9" class="st33" width="0.3" height="39.7"/>
			<rect x="28.3" y="6.9" class="st34" width="0.3" height="39.7"/>
			<rect x="28.6" y="6.9" class="st35" width="0.3" height="39.7"/>
			<rect x="29" y="6.9" class="st36" width="0.3" height="39.7"/>
			<rect x="29.3" y="6.9" class="st37" width="0.3" height="39.7"/>
			<rect x="29.6" y="6.9" class="st38" width="0.3" height="39.7"/>
			<rect x="29.9" y="6.9" class="st39" width="0.3" height="39.7"/>
			<rect x="30.2" y="6.9" class="st40" width="0.3" height="39.7"/>
			<rect x="30.5" y="6.9" class="st41" width="0.3" height="39.7"/>
			<rect x="30.8" y="6.9" class="st42" width="0.3" height="39.7"/>
			<rect x="31.1" y="6.9" class="st43" width="0.3" height="39.7"/>
			<rect x="31.5" y="6.9" class="st44" width="0.3" height="39.7"/>
			<rect x="31.8" y="6.9" class="st45" width="0.3" height="39.7"/>
			<rect x="32.1" y="6.9" class="st46" width="0.3" height="39.7"/>
			<rect x="32.4" y="6.9" class="st47" width="0.3" height="39.7"/>
			<rect x="32.7" y="6.9" class="st48" width="0.3" height="39.7"/>
			<rect x="33" y="6.9" class="st49" width="0.3" height="39.7"/>
			<rect x="33.3" y="6.9" class="st50" width="0.3" height="39.7"/>
			<rect x="33.6" y="6.9" class="st51" width="0.3" height="39.7"/>
			<rect x="34" y="6.9" class="st52" width="0.3" height="39.7"/>
			<rect x="34.3" y="6.9" class="st53" width="0.3" height="39.7"/>
			<rect x="34.6" y="6.9" class="st54" width="0.3" height="39.7"/>
			<rect x="34.9" y="6.9" class="st55" width="0.3" height="39.7"/>
			<rect x="35.2" y="6.9" class="st56" width="0.3" height="39.7"/>
			<rect x="35.5" y="6.9" class="st57" width="0.3" height="39.7"/>
			<rect x="35.8" y="6.9" class="st58" width="0.3" height="39.7"/>
			<rect x="36.1" y="6.9" class="st59" width="0.3" height="39.7"/>
			<rect x="36.5" y="6.9" class="st60" width="0.3" height="39.7"/>
			<rect x="36.8" y="6.9" class="st61" width="0.3" height="39.7"/>
			<rect x="37.1" y="6.9" class="st62" width="0.3" height="39.7"/>
			<rect x="37.4" y="6.9" class="st63" width="0.3" height="39.7"/>
			<rect x="37.7" y="6.9" class="st64" width="0.3" height="39.7"/>
			<rect x="38" y="6.9" class="st65" width="0.3" height="39.7"/>
			<rect x="38.3" y="6.9" class="st66" width="0.3" height="39.7"/>
			<rect x="38.6" y="6.9" class="st67" width="0.3" height="39.7"/>
			<rect x="39" y="6.9" class="st67" width="4.5" height="39.7"/>
		</g>
	</g>
	<g>
		<g>
			<path class="st68" d="M80.8,1.7v7.5h-3.4c-5.6,0-9.2,0.4-10.6,1.4c-0.8,0.5-1.4,1.3-1.8,2.3c-0.6,1.4-0.9,3.4-0.9,5.9
				c0,2.4,0.3,4.3,0.8,5.7c0.4,1,0.9,1.8,1.6,2.3c1.4,1.1,5,1.6,10.9,1.6h3.4v7.5h-3.4c-3.9,0-6.7-0.1-8.5-0.4
				c-2.9-0.4-5.2-1.4-7.1-2.8c-1.8-1.4-3.2-3.3-4-5.6c-0.8-2.3-1.3-5.1-1.3-8.3c0-3.5,0.5-6.4,1.5-8.8c1-2.5,2.6-4.4,4.7-5.7
				c1.8-1.2,4.1-2,6.8-2.3c1.6-0.2,4.3-0.3,8-0.3H80.8z"/>
			<path class="st68" d="M97.9,24.1c-1.4-0.7-2.5-1.7-3.1-3.1L86,1.4h8l7.7,16.6l7.7-16.6h8l-8.8,19.6c-0.6,1.4-1.7,2.4-3.1,3.1
				v11.7h-7.6V24.1z"/>
			<path class="st68" d="M134.2,1.4c3.5,0,6.5,1.2,9,3.7c2.5,2.5,3.7,5.5,3.7,9c0,3.5-1.2,6.5-3.7,9c-2.5,2.5-5.5,3.7-9,3.7h-1.7
				v-7.6h1.7c1.4,0,2.7-0.5,3.7-1.5c1-1,1.5-2.2,1.5-3.7s-0.5-2.7-1.5-3.7c-1-1-2.2-1.5-3.7-1.5h-4.1v26.9h-7.6V8.8
				c0-2,0.7-3.8,2.2-5.2c1.4-1.4,3.2-2.2,5.2-2.2H134.2z"/>
			<path class="st68" d="M173.3,35.9l-8.5-10.3c-1.2-1.3-1.9-2.6-1.9-3.8c0-1.3,0.4-2.3,1.3-3.2c0.9-0.9,2-1.3,3.2-1.3h2.5
				c1.3,0,2.2-0.2,2.7-0.7c0.5-0.5,0.7-1.6,0.7-3.4c0-1.8-0.2-2.9-0.7-3.4c-0.5-0.5-1.4-0.7-2.7-0.7h-8.7v26.9h-7.6V8.8
				c0-2,0.7-3.8,2.2-5.2c1.4-1.4,3.2-2.2,5.2-2.2h9c3.4,0,6,1,8,2.9c2,2,2.9,4.6,2.9,8c0,3.4-1,6-2.9,8c-1.4,1.4-3.5,2.4-6.1,2.8
				l10.5,12.7H173.3z"/>
			<path class="st68" d="M208.1,11.1h7.6v10.2c0,4.1-1.3,7.5-3.8,10.2c-2.7,2.9-6,4.3-10,4.3c-3.7,0-6.9-1.2-9.5-3.7
				c-2.9-2.7-4.3-6.3-4.3-10.8V11.1h7.6v10.2c0,2.3,0.6,4,1.9,5.3c1.2,1.1,2.6,1.6,4.3,1.6v0c1.8,0,3.3-0.6,4.5-1.9
				c1.2-1.2,1.7-2.9,1.7-5.1V11.1z"/>
			<path class="st68" d="M238.5,15.1c2.9,0,5.4,1,7.4,3.1c2.1,2.1,3.1,4.4,3.1,7.2c0,2.9-1,5.4-3.1,7.4c-2.1,2.1-4.5,3.1-7.4,3.1
				h-15v-7.5h15c0.8,0,1.5-0.3,2.1-0.9c0.6-0.6,0.9-1.3,0.9-2.1c0-1-0.3-1.7-0.9-2.3c-0.6-0.6-1.3-0.9-2.1-0.9h-5.3
				c-2.9,0-5.4-1-7.4-3.1c-2.1-2.1-3.1-4.4-3.1-7.2c0-2.9,1-5.4,3.1-7.4c2.1-2.1,4.5-3.1,7.4-3.1h14V9h-14c-0.8,0-1.5,0.3-2.1,0.9
				c-0.6,0.6-0.9,1.3-0.9,2.1c0,1,0.3,1.7,0.9,2.3c0.6,0.6,1.3,0.9,2.1,0.9H238.5z"/>
		</g>
	</g>
	<g>
		<path class="st68" d="M144.2,50.5c-0.2,0.2-0.4,0.3-0.7,0.4c-0.3,0.1-0.6,0.1-0.9,0.1c-0.8,0-1.4-0.2-1.8-0.6
			c-0.4-0.4-0.6-1-0.6-1.8v-3.4h-1.1v-1.3h1.1v-1.6h1.6v1.6h1.9v1.3h-1.9v3.3c0,0.3,0.1,0.6,0.2,0.8c0.2,0.2,0.4,0.3,0.7,0.3
			c0.4,0,0.7-0.1,0.9-0.3L144.2,50.5z"/>
		<path class="st68" d="M153.7,47.9h-5.5c0.1,0.5,0.3,0.9,0.8,1.2c0.4,0.3,0.9,0.5,1.5,0.5c0.8,0,1.4-0.3,1.9-0.8l0.9,1
			c-0.3,0.4-0.7,0.7-1.2,0.8c-0.5,0.2-1,0.3-1.6,0.3c-0.8,0-1.4-0.2-2-0.5s-1-0.7-1.4-1.3c-0.3-0.5-0.5-1.2-0.5-1.8
			c0-0.7,0.2-1.3,0.5-1.8s0.7-1,1.3-1.3c0.5-0.3,1.2-0.5,1.9-0.5c0.7,0,1.3,0.1,1.8,0.5c0.5,0.3,1,0.7,1.3,1.3
			c0.3,0.5,0.5,1.2,0.5,1.9C153.7,47.5,153.7,47.7,153.7,47.9z M148.8,45.6c-0.4,0.3-0.6,0.7-0.7,1.2h4c-0.1-0.5-0.3-0.9-0.6-1.2
			c-0.4-0.3-0.8-0.5-1.3-0.5C149.6,45.1,149.2,45.3,148.8,45.6z"/>
		<path class="st68" d="M158.3,50.5c-0.6-0.3-1-0.7-1.3-1.3c-0.3-0.5-0.5-1.2-0.5-1.8s0.2-1.3,0.5-1.8c0.3-0.5,0.8-1,1.3-1.3
			c0.6-0.3,1.2-0.5,2-0.5c0.7,0,1.3,0.1,1.8,0.4s0.9,0.7,1.2,1.2l-1.3,0.7c-0.2-0.3-0.5-0.6-0.8-0.7c-0.3-0.2-0.6-0.2-1-0.2
			c-0.6,0-1.1,0.2-1.5,0.6c-0.4,0.4-0.6,0.9-0.6,1.6c0,0.7,0.2,1.2,0.6,1.6c0.4,0.4,0.9,0.6,1.5,0.6c0.4,0,0.7-0.1,1-0.2
			c0.3-0.2,0.6-0.4,0.8-0.7l1.3,0.7c-0.3,0.5-0.7,0.9-1.2,1.2S161,51,160.3,51C159.6,51,158.9,50.8,158.3,50.5z"/>
		<path class="st68" d="M172.5,44.6c0.5,0.5,0.8,1.3,0.8,2.3v4h-1.6v-3.8c0-0.6-0.1-1.1-0.4-1.4c-0.3-0.3-0.7-0.5-1.2-0.5
			c-0.6,0-1.1,0.2-1.4,0.5c-0.3,0.4-0.5,0.9-0.5,1.6v3.5h-1.6v-9.7h1.6v3.5c0.3-0.3,0.6-0.5,1-0.7c0.4-0.2,0.8-0.2,1.3-0.2
			C171.3,43.8,172,44.1,172.5,44.6z"/>
		<path class="st68" d="M183.3,44.6c0.5,0.5,0.8,1.3,0.8,2.3v4h-1.6v-3.8c0-0.6-0.1-1.1-0.4-1.4c-0.3-0.3-0.7-0.5-1.2-0.5
			c-0.6,0-1.1,0.2-1.4,0.5c-0.3,0.4-0.5,0.9-0.5,1.6v3.5h-1.6v-7h1.6v0.9c0.3-0.3,0.6-0.6,1-0.7c0.4-0.2,0.9-0.2,1.4-0.2
			C182,43.8,182.8,44.1,183.3,44.6z"/>
		<path class="st68" d="M189.3,50.5c-0.6-0.3-1-0.7-1.3-1.3c-0.3-0.5-0.5-1.2-0.5-1.8s0.2-1.3,0.5-1.8c0.3-0.5,0.8-1,1.3-1.3
			c0.6-0.3,1.2-0.5,1.9-0.5c0.7,0,1.4,0.2,1.9,0.5c0.6,0.3,1,0.7,1.3,1.3c0.3,0.5,0.5,1.2,0.5,1.8s-0.2,1.3-0.5,1.8
			c-0.3,0.5-0.8,1-1.3,1.3c-0.6,0.3-1.2,0.5-1.9,0.5C190.5,51,189.8,50.8,189.3,50.5z M192.7,49c0.4-0.4,0.6-0.9,0.6-1.6
			c0-0.7-0.2-1.2-0.6-1.6c-0.4-0.4-0.9-0.6-1.5-0.6c-0.6,0-1.1,0.2-1.5,0.6c-0.4,0.4-0.6,0.9-0.6,1.6c0,0.7,0.2,1.2,0.6,1.6
			c0.4,0.4,0.9,0.6,1.5,0.6C191.8,49.6,192.3,49.4,192.7,49z"/>
		<path class="st68" d="M198.3,41.2h1.6v9.7h-1.6V41.2z"/>
		<path class="st68" d="M205.1,50.5c-0.6-0.3-1-0.7-1.3-1.3c-0.3-0.5-0.5-1.2-0.5-1.8s0.2-1.3,0.5-1.8c0.3-0.5,0.8-1,1.3-1.3
			c0.6-0.3,1.2-0.5,1.9-0.5c0.7,0,1.4,0.2,1.9,0.5c0.6,0.3,1,0.7,1.3,1.3c0.3,0.5,0.5,1.2,0.5,1.8s-0.2,1.3-0.5,1.8
			c-0.3,0.5-0.8,1-1.3,1.3c-0.6,0.3-1.2,0.5-1.9,0.5C206.3,51,205.7,50.8,205.1,50.5z M208.5,49c0.4-0.4,0.6-0.9,0.6-1.6
			c0-0.7-0.2-1.2-0.6-1.6c-0.4-0.4-0.9-0.6-1.5-0.6c-0.6,0-1.1,0.2-1.5,0.6c-0.4,0.4-0.6,0.9-0.6,1.6c0,0.7,0.2,1.2,0.6,1.6
			c0.4,0.4,0.9,0.6,1.5,0.6C207.6,49.6,208.1,49.4,208.5,49z"/>
		<path class="st68" d="M221.1,43.9v5.9c0,2.5-1.3,3.7-3.8,3.7c-0.7,0-1.3-0.1-1.9-0.3c-0.6-0.2-1.1-0.4-1.5-0.7l0.7-1.2
			c0.3,0.3,0.7,0.5,1.2,0.6s0.9,0.2,1.4,0.2c0.8,0,1.3-0.2,1.7-0.5c0.4-0.3,0.5-0.9,0.5-1.6v-0.4c-0.3,0.3-0.6,0.5-1,0.7
			c-0.4,0.2-0.8,0.2-1.3,0.2c-0.7,0-1.3-0.1-1.8-0.4c-0.5-0.3-1-0.7-1.3-1.2c-0.3-0.5-0.5-1.1-0.5-1.8c0-0.7,0.2-1.2,0.5-1.8
			c0.3-0.5,0.7-0.9,1.3-1.2c0.5-0.3,1.1-0.4,1.8-0.4c0.5,0,1,0.1,1.4,0.2c0.4,0.2,0.8,0.4,1,0.8v-0.9H221.1z M218.9,48.6
			c0.4-0.4,0.6-0.9,0.6-1.4c0-0.6-0.2-1.1-0.6-1.4c-0.4-0.4-0.9-0.5-1.5-0.5c-0.6,0-1.1,0.2-1.5,0.5c-0.4,0.4-0.6,0.8-0.6,1.4
			c0,0.6,0.2,1.1,0.6,1.4c0.4,0.4,0.9,0.6,1.5,0.6C218,49.2,218.5,49,218.9,48.6z"/>
		<path class="st68" d="M225.1,42.5c-0.2-0.2-0.3-0.4-0.3-0.7c0-0.3,0.1-0.5,0.3-0.7c0.2-0.2,0.4-0.3,0.7-0.3s0.5,0.1,0.7,0.3
			c0.2,0.2,0.3,0.4,0.3,0.7c0,0.3-0.1,0.5-0.3,0.7c-0.2,0.2-0.4,0.3-0.8,0.3C225.6,42.7,225.3,42.6,225.1,42.5z M225.1,43.9h1.6v7
			h-1.6V43.9z"/>
		<path class="st68" d="M237.2,47.9h-5.5c0.1,0.5,0.3,0.9,0.8,1.2c0.4,0.3,0.9,0.5,1.5,0.5c0.8,0,1.4-0.3,1.9-0.8l0.9,1
			c-0.3,0.4-0.7,0.7-1.2,0.8c-0.5,0.2-1,0.3-1.6,0.3c-0.8,0-1.4-0.2-2-0.5s-1-0.7-1.4-1.3c-0.3-0.5-0.5-1.2-0.5-1.8
			c0-0.7,0.2-1.3,0.5-1.8s0.7-1,1.3-1.3c0.5-0.3,1.2-0.5,1.9-0.5c0.7,0,1.3,0.1,1.8,0.5c0.5,0.3,1,0.7,1.3,1.3
			c0.3,0.5,0.5,1.2,0.5,1.9C237.2,47.5,237.2,47.7,237.2,47.9z M232.4,45.6c-0.4,0.3-0.6,0.7-0.7,1.2h4c-0.1-0.5-0.3-0.9-0.6-1.2
			c-0.4-0.3-0.8-0.5-1.3-0.5C233.2,45.1,232.7,45.3,232.4,45.6z"/>
		<path class="st68" d="M241.1,50.7c-0.5-0.1-1-0.3-1.3-0.6l0.6-1.2c0.3,0.2,0.7,0.4,1.1,0.5c0.4,0.1,0.9,0.2,1.3,0.2
			c1,0,1.5-0.3,1.5-0.8c0-0.2-0.1-0.4-0.4-0.5c-0.2-0.1-0.6-0.2-1.2-0.3c-0.6-0.1-1-0.2-1.4-0.3c-0.4-0.1-0.7-0.3-0.9-0.6
			c-0.3-0.3-0.4-0.7-0.4-1.2c0-0.7,0.3-1.2,0.8-1.6c0.6-0.4,1.3-0.6,2.2-0.6c0.5,0,1,0.1,1.4,0.2s0.9,0.3,1.2,0.4l-0.6,1.2
			c-0.6-0.3-1.3-0.5-2-0.5c-0.5,0-0.8,0.1-1.1,0.2c-0.2,0.1-0.4,0.3-0.4,0.6c0,0.3,0.1,0.4,0.4,0.6s0.7,0.2,1.2,0.3
			c0.6,0.1,1,0.2,1.4,0.3c0.4,0.1,0.7,0.3,0.9,0.6c0.3,0.3,0.4,0.7,0.4,1.1c0,0.7-0.3,1.2-0.8,1.6c-0.6,0.4-1.3,0.6-2.3,0.6
			C242.2,51,241.7,50.9,241.1,50.7z"/>
	</g>
	<path class="st2" d="M187.7,0v4.5c0,1.9,1.6,3.5,3.5,3.5s3.5-1.6,3.5-3.5V0H187.7z"/>
	<path class="st2" d="M209,0v4.5c0,1.9,1.6,3.5,3.5,3.5s3.5-1.6,3.5-3.5V0H209z"/>
</g>
</svg>
